<svg width="658" height="598" viewBox="0 0 658 598" fill="none" xmlns="http://www.w3.org/2000/svg">
<circle cx="293" cy="308.134" r="267" fill="#3B4B3F"/>
<path d="M295.5 387.634C370.3 380.434 390.333 347.634 391 332.134L352 338.134L302.5 347.134L251 356.634L167.5 362.134L139.5 395.634C154.167 406.134 187.3 428.734 202.5 435.134C221.5 443.134 202.5 413.634 202.5 407.634C202.5 401.634 202 396.634 295.5 387.634Z" fill="#59B018"/>
<mask id="path-3-inside-1_20_437" fill="white">
<path fill-rule="evenodd" clip-rule="evenodd" d="M287.5 597.134C446.282 597.134 575 467.744 575 308.134C575 148.524 446.282 19.134 287.5 19.134C128.718 19.134 0 148.524 0 308.134C0 467.744 128.718 597.134 287.5 597.134ZM287.5 556.694C423.911 556.694 534.493 445.41 534.493 308.134C534.493 170.858 423.911 59.5743 287.5 59.5743C151.089 59.5743 40.5069 170.858 40.5069 308.134C40.5069 445.41 151.089 556.694 287.5 556.694Z"/>
</mask>
<path fill-rule="evenodd" clip-rule="evenodd" d="M287.5 597.134C446.282 597.134 575 467.744 575 308.134C575 148.524 446.282 19.134 287.5 19.134C128.718 19.134 0 148.524 0 308.134C0 467.744 128.718 597.134 287.5 597.134ZM287.5 556.694C423.911 556.694 534.493 445.41 534.493 308.134C534.493 170.858 423.911 59.5743 287.5 59.5743C151.089 59.5743 40.5069 170.858 40.5069 308.134C40.5069 445.41 151.089 556.694 287.5 556.694Z" fill="#7AC634"/>
<path d="M550 308.134C550 454.06 432.352 572.134 287.5 572.134V622.134C460.211 622.134 600 481.429 600 308.134H550ZM287.5 44.134C432.352 44.134 550 162.208 550 308.134H600C600 134.839 460.211 -5.86597 287.5 -5.86597V44.134ZM25 308.134C25 162.208 142.648 44.134 287.5 44.134V-5.86597C114.789 -5.86597 -25 134.839 -25 308.134H25ZM287.5 572.134C142.648 572.134 25 454.06 25 308.134H-25C-25 481.429 114.789 622.134 287.5 622.134V572.134ZM509.493 308.134C509.493 431.752 409.955 531.694 287.5 531.694V581.694C437.866 581.694 559.493 459.068 559.493 308.134H509.493ZM287.5 84.5743C409.955 84.5743 509.493 184.516 509.493 308.134H559.493C559.493 157.2 437.866 34.5743 287.5 34.5743V84.5743ZM65.5069 308.134C65.5069 184.516 165.045 84.5743 287.5 84.5743V34.5743C137.134 34.5743 15.5069 157.2 15.5069 308.134H65.5069ZM287.5 531.694C165.045 531.694 65.5069 431.752 65.5069 308.134H15.5069C15.5069 459.068 137.134 581.694 287.5 581.694V531.694Z" fill="#A1DC48" mask="url(#path-3-inside-1_20_437)"/>
<path fill-rule="evenodd" clip-rule="evenodd" d="M284 554.134C419.31 554.134 529 443.548 529 307.134C529 209.025 472.263 124.276 390.065 84.4166C478.159 121.841 540 209.707 540 312.134C540 448.548 430.31 559.134 295 559.134C257.005 559.134 221.029 550.414 188.935 534.851C218.167 547.27 250.288 554.134 284 554.134ZM188.935 534.851C100.841 497.427 39 409.561 39 307.134C39 170.72 148.69 60.134 284 60.134C321.995 60.134 357.971 68.8538 390.065 84.4166C360.833 71.9985 328.712 65.134 295 65.134C159.69 65.134 50 175.72 50 312.134C50 410.243 106.737 494.992 188.935 534.851Z" fill="#E0F3C0"/>
<path fill-rule="evenodd" clip-rule="evenodd" d="M390.065 84.4166C360.833 71.9985 328.712 65.134 295 65.134C159.69 65.134 50 175.72 50 312.134C50 410.243 106.737 494.992 188.935 534.851C100.841 497.427 39 409.561 39 307.134C39 170.72 148.69 60.134 284 60.134C321.995 60.134 357.971 68.8538 390.065 84.4166Z" fill="#237D10"/>
<path d="M387.5 333.5C380 342.333 351.3 361 296.5 365C279.5 371.5 189.5 378 179.5 392C174.523 398.968 176.513 406.04 180.173 411.432L187.5 419C185.233 417.363 182.395 414.707 180.173 411.432L157 387.5C169.167 380 193.8 365 195 365C196.2 365 217.833 364 228.5 363.5L266.5 353.5L296.5 348.5C313.5 345.167 347.9 338.4 349.5 338C351.1 337.6 369.5 334.833 378.5 333.5L391 331L387.5 333.5Z" fill="#E0F3C0"/>
<path fill-rule="evenodd" clip-rule="evenodd" d="M480 13.634H388H384.5C383.978 79.5101 384.273 202.99 384.426 266.973C384.469 284.737 384.5 297.915 384.5 304C384.5 309.045 384.51 313.259 384.519 316.828C384.536 323.505 384.547 327.922 384.473 331.297C312.891 338.072 202.803 349.271 130.337 356.643C87.6492 360.986 58.0166 364 57 364C58.3817 368.899 59.3358 373.653 60.2718 378.318C61.753 385.7 63.189 392.856 66.2027 400C99.188 478.196 163.738 532.496 276 541.634C438 534.834 480.5 406.134 481.5 342.634C482.167 308.967 483.5 230.234 483.5 184.634C483.5 127.634 496 109.134 503.5 112.134C555.5 133.134 582 110.134 610.5 76.134C632.033 36.0821 650.228 18.6579 656.138 12.9981C657.09 12.0869 657.723 11.4807 658 11.134C657 6.63401 574.5 -12.866 527 13.634C489 34.834 487.167 74.134 491 91.134L480 113.634V13.634ZM387 331.634C381.5 366.134 351.6 435.334 276 436.134C200.4 436.934 177.167 409.134 175 395.134C174.333 390.967 184.6 381.034 231 374.634C268.306 369.488 286.672 365.15 293.217 363.604C294.813 363.227 295.706 363.016 296 363C317 361.833 364.2 352.834 387 331.634Z" fill="black"/>
<path d="M477.5 14.134H387.5C387.167 106.467 386.5 300.134 386.5 336.134C376.1 409.334 319.833 438.301 293 443.634C275.5 448.134 228.9 449.434 182.5 418.634C136.1 387.834 178.167 371.801 205 367.634C223 364.301 265 358.1 287 354.5C312.5 351 358 339.333 373 332.5C359 334 304 339 304 339C278.5 336.134 185.5 344.134 159.5 342.634C133.5 341.134 55 358.134 55 361.634C79.5 496.134 248.5 576.134 366 516.634C460 469.034 479.5 372.467 477.5 330.134V14.134Z" fill="white"/>
<rect x="424" y="37.134" width="17" height="59" rx="8.5" fill="black"/>
<rect x="424" y="128.134" width="17" height="59" rx="8.5" fill="black"/>
<rect x="424" y="222.134" width="17" height="59" rx="8.5" fill="black"/>
<path d="M423.503 321.088C423.782 316.617 427.49 313.134 431.97 313.134V313.134C436.863 313.134 440.742 317.263 440.437 322.147L437.497 369.18C437.218 373.651 433.51 377.134 429.03 377.134V377.134C424.137 377.134 420.258 373.005 420.563 368.121L423.503 321.088Z" fill="black"/>
<path d="M405.799 408.667C408.575 405.151 413.606 404.4 417.289 406.951V406.951C421.311 409.738 422.148 415.341 419.115 419.181L389.912 456.167C387.136 459.683 382.105 460.435 378.423 457.883V457.883C374.4 455.096 373.564 449.494 376.596 445.653L405.799 408.667Z" fill="black"/>
<path d="M342.727 466.872C346.951 465.379 351.608 467.427 353.361 471.549V471.549C355.277 476.052 352.996 481.237 348.383 482.869L303.953 498.577C299.729 500.07 295.073 498.022 293.319 493.899V493.899C291.403 489.397 293.684 484.211 298.297 482.58L342.727 466.872Z" fill="black"/>
<path d="M257.978 483.65C262.362 484.569 265.277 488.738 264.633 493.171V493.171C263.931 498.014 259.288 501.26 254.498 500.256L208.375 490.592C203.99 489.673 201.076 485.504 201.719 481.071V481.071C202.422 476.228 207.065 472.982 211.854 473.986L257.978 483.65Z" fill="black"/>
<path d="M179.878 456.566C183.535 459.153 184.55 464.138 182.196 467.949V467.949C179.625 472.113 174.074 473.243 170.079 470.417L131.608 443.2C127.951 440.613 126.936 435.628 129.29 431.817V431.817C131.861 427.653 137.412 426.523 141.407 429.349L179.878 456.566Z" fill="black"/>
<path d="M119.364 399.755C121.111 403.709 119.594 408.344 115.847 410.499V410.499C111.494 413.002 105.932 411.181 103.902 406.588L95.4699 387.508C93.7227 383.554 95.24 378.92 98.9869 376.765V376.765C103.34 374.261 108.903 376.082 110.932 380.675L119.364 399.755Z" fill="black"/>
<path d="M155.5 359.634C161.1 358.834 155.833 354.967 152.5 353.134C128.5 352.134 107 366.134 106.5 367.134C106 368.134 118 370.634 119.5 368.134C121 365.634 148.5 360.634 155.5 359.634Z" fill="black"/>
<path d="M174 356.134C166 356.134 170 351.801 173 349.634H196.5C198.9 349.634 195.5 352.967 193.5 354.634C190.333 355.134 182 356.134 174 356.134Z" fill="black"/>
<path d="M206 353.134C200 353.134 203.5 349.801 206 348.134C211.833 347.634 224.1 346.634 226.5 346.634C229.5 346.634 231.5 348.634 229.5 351.134C227.5 353.634 213.5 353.134 206 353.134Z" fill="black"/>
<path d="M239.5 349.634C235 349.634 239.5 348.134 242 346.634H258C260.5 346.634 274 342.134 281.5 343.634C289 345.134 276.5 346.634 267 348.134C257.5 349.634 244 349.634 239.5 349.634Z" fill="black"/>
<path d="M656 11.6332C655.421 14.9969 654.406 16.5747 651.945 18.9105C651.33 19.5067 650.716 20.1029 650.082 20.7172C649.113 21.6346 649.113 21.6346 648.125 22.5707C644.106 26.399 640.78 29.7819 638 34.6332C637.34 34.6332 636.68 34.6332 636 34.6332C635.615 35.7121 635.615 35.7121 635.223 36.8129C633.929 39.7973 632.357 42.1376 630.438 44.7582C628.456 47.4682 627.065 49.437 626 52.6332C625.34 52.6332 624.68 52.6332 624 52.6332C623.727 53.3602 623.453 54.0872 623.172 54.8363C621.265 59.3876 618.611 63.4569 616 67.6332C615.535 68.3795 615.069 69.1259 614.59 69.8949C603.536 87.0454 603.536 87.0454 597 89.6332C597 88.9732 597 88.3132 597 87.6332C597.99 86.9732 598.98 86.3132 600 85.6332C599.423 85.9425 598.845 86.2519 598.25 86.5707C596 87.6332 596 87.6332 593.812 88.0707C593.214 88.2563 592.616 88.4419 592 88.6332C591.505 90.1182 591.505 90.1182 591 91.6332C581.628 102.336 567.228 108.486 554 112.633C553.009 113.022 553.009 113.022 551.998 113.418C545.7 115.803 539.944 116.086 533.25 116.008C531.728 116.026 531.728 116.026 530.176 116.043C524.887 116.022 521.346 115.926 517 112.633C515.245 111.867 513.474 111.136 511.688 110.446C510.363 109.929 510.363 109.929 509.012 109.403C508.348 109.149 507.684 108.895 507 108.633C508.475 104.027 511.109 100.774 514.25 97.1957C514.777 96.5902 515.303 95.9848 515.845 95.3609C525.067 84.8905 534.894 75.1068 546 66.6332C546.88 65.959 547.761 65.2848 548.668 64.5902C555.511 59.4852 562.66 54.985 570 50.6332C570.897 50.0983 570.897 50.0983 571.812 49.5526C583.994 42.3167 583.994 42.3167 589.914 40.3519C592.832 39.3465 595.654 38.1396 598.5 36.9457C599.542 36.5087 600.583 36.0717 601.656 35.6214C602.816 35.1322 602.816 35.1322 604 34.6332C583.098 35.2027 562.37 40.0974 543.72 49.7489C542.391 50.4322 541.032 51.0588 539.664 51.6605C533.495 54.4139 528.147 58.2027 522.688 62.1332C521.91 62.6913 521.133 63.2493 520.333 63.8243C511.922 69.8181 511.922 69.8181 507 78.6332C506.34 78.6332 505.68 78.6332 505 78.6332C504.917 79.355 504.835 80.0769 504.75 80.8207C503.843 84.2224 502.4 86.0878 500 88.6332C499.34 88.6332 498.68 88.6332 498 88.6332C497.721 89.3593 497.443 90.0855 497.156 90.8336C495.295 95.3415 492.902 99.5466 490.562 103.821C490.072 104.735 489.582 105.65 489.076 106.592C488.36 107.902 488.36 107.902 487.629 109.239C487.197 110.034 486.764 110.83 486.319 111.65C485 113.633 485 113.633 482 115.633C482.84 109.848 485.297 104.608 487.473 99.2269C489.005 95.3813 490.401 91.7575 491 87.6332C490.34 87.6332 489.68 87.6332 489 87.6332C488.014 62.4158 488.014 62.4158 494 52.6332C494.468 51.3103 494.907 49.9767 495.312 48.6332C501.186 32.6685 517.037 18.6746 532.172 11.621C571.528 -5.60585 616.118 -1.66089 656 11.6332Z" fill="#A1DC48"/>
<path d="M581 5.13393C514.6 9.53393 493 63.6339 490.5 90.1339C485.667 72.6339 486.7 32.4339 529.5 11.6339C572.3 -9.16608 631 2.96726 655 11.6339C592 0.633929 589.5 4.57068 581 5.13393Z" fill="white"/>
<path d="M570.5 107.134C544.5 120.334 519 110.967 509.5 104.634L501.5 111.634C504.167 112.301 512.4 114.634 524 118.634C571 126.634 597 95.634 605 82.634C613 69.634 642.5 30.634 635.5 35.634C628.5 40.634 603 90.634 570.5 107.134Z" fill="#3C7F1A"/>
<path d="M368.016 324.486L357.479 330.425C357.479 330.425 354.823 321.879 357.531 316.202C360.239 310.525 373.204 308.548 368.016 324.486Z" fill="black"/>
<path d="M324.275 336.79L301.622 333.119C301.622 333.119 309.154 313.344 317.158 313.344C325.162 313.344 329.061 327.763 324.275 336.79Z" fill="black"/>
<path d="M317.745 318.878C317.745 318.878 311.352 317.009 308.138 318.69L308.113 318.721C304.141 320.45 300.983 325.541 300.455 331.798C299.819 339.362 302.551 345.902 307.442 347.027L308.057 347.121C308.162 347.121 308.263 347.163 308.372 347.174H308.421C310.136 347.408 313.749 347.802 316.306 347.366C316.32 347.369 328.761 332.469 317.745 318.878Z" fill="#231F20"/>
<path d="M323.751 333.15C323.401 340.836 320.428 347.055 316.32 347.369C312.211 347.684 307.205 343.324 307.407 334.135C307.554 324.199 312.77 318.899 316.386 318.725C320.837 318.501 324.111 325.108 323.751 333.15Z" fill="#323232"/>
<path d="M321.424 333.129C321.2 339.295 318.35 344.309 315.069 344.326C311.789 344.344 309.388 339.348 309.65 333.234C309.912 327.12 312.721 322.232 315.939 322.177C319.157 322.121 321.637 327.005 321.424 333.129Z" fill="url(#paint0_linear_20_437)"/>
<path d="M320.91 333.133C320.704 338.771 318.095 343.372 315.097 343.376C312.099 343.379 309.895 338.834 310.136 333.244C310.377 327.654 312.931 323.162 315.9 323.113C318.87 323.064 321.117 327.529 320.91 333.133Z" fill="#BBBDBF"/>
<path d="M319.719 333.143C319.555 337.538 317.525 341.116 315.177 341.122C312.83 341.129 311.114 337.587 311.299 333.22C311.484 328.853 313.493 325.342 315.803 325.307C318.112 325.272 319.88 328.769 319.719 333.143Z" fill="#241F20"/>
<path d="M317.871 337.433C318.213 337.443 318.538 337.586 318.776 337.831C319.38 336.339 319.714 334.752 319.764 333.143C319.764 332.877 319.765 332.622 319.747 332.364C318.72 332.088 318 330.442 318.063 328.427C318.081 327.887 318.161 327.351 318.301 326.83C317.626 325.824 316.774 325.212 315.813 325.226C315.684 325.241 315.556 325.268 315.432 325.307C315.286 327.403 314.3 329.09 313.165 329.104C312.986 329.097 312.811 329.054 312.649 328.979C312.487 328.903 312.342 328.796 312.222 328.664C311.645 330.112 311.321 331.648 311.264 333.206C311.264 333.471 311.264 333.726 311.264 333.985C312.382 334.083 313.21 335.819 313.123 337.975C313.098 338.584 312.994 339.187 312.816 339.77C313.462 340.665 314.272 341.192 315.174 341.192C315.316 341.178 315.456 341.15 315.593 341.109C315.778 339.061 316.753 337.437 317.871 337.433Z" fill="url(#paint1_linear_20_437)"/>
<path d="M316.697 333.227C316.652 334.457 316.082 335.463 315.429 335.463C314.776 335.463 314.297 334.467 314.349 333.248C314.402 332.028 314.961 331.047 315.604 331.036C316.246 331.026 316.743 332.004 316.697 333.227Z" fill="#241F20"/>
<path d="M268.058 315.154C268.058 315.154 261.665 313.289 258.447 314.969L258.423 314.997C254.454 316.726 251.296 321.817 250.768 328.077C250.129 335.638 252.864 342.181 257.756 343.303L258.37 343.397C258.479 343.397 258.58 343.439 258.688 343.446H258.734C260.449 343.684 264.065 344.075 266.622 343.638C266.633 343.645 279.084 328.748 268.058 315.154Z" fill="#231F20"/>
<path d="M274.06 329.426C273.711 337.112 270.741 343.331 266.633 343.645C262.524 343.959 257.518 339.599 257.717 330.411C257.867 320.479 263.08 315.175 266.699 315C271.147 314.78 274.424 321.387 274.06 329.426Z" fill="#323232"/>
<path d="M271.723 329.405C271.499 335.571 268.649 340.602 265.372 340.602C262.095 340.602 259.691 335.627 259.953 329.51C260.215 323.392 263.02 318.505 266.241 318.449C269.463 318.393 271.947 323.28 271.723 329.405Z" fill="url(#paint2_linear_20_437)"/>
<path d="M271.22 329.412C271.017 335.051 268.408 339.648 265.407 339.655C262.406 339.662 260.208 335.114 260.446 329.524C260.683 323.934 263.24 319.441 266.21 319.392C269.18 319.343 271.426 323.808 271.22 329.412Z" fill="#BBBDBF"/>
<path d="M270.032 329.419C269.868 333.814 267.838 337.391 265.49 337.398C263.143 337.405 261.438 333.866 261.623 329.51C261.808 325.153 263.817 321.628 266.123 321.593C268.429 321.558 270.193 325.045 270.032 329.419Z" fill="#241F20"/>
<path d="M268.184 333.702C268.524 333.714 268.847 333.857 269.085 334.1C269.686 332.61 270.018 331.025 270.067 329.419C270.067 329.153 270.067 328.902 270.05 328.64C269.019 328.367 268.303 326.722 268.362 324.702C268.382 324.163 268.462 323.627 268.6 323.106C267.929 322.1 267.076 321.492 266.116 321.502C265.986 321.519 265.857 321.546 265.731 321.582C265.588 323.679 264.599 325.366 263.467 325.38C263.288 325.373 263.112 325.331 262.95 325.255C262.787 325.18 262.641 325.072 262.521 324.94C261.947 326.398 261.628 327.944 261.577 329.51C261.577 329.772 261.577 330.03 261.577 330.285C262.695 330.386 263.523 332.123 263.436 334.275C263.413 334.884 263.309 335.488 263.129 336.071C263.778 336.965 264.589 337.496 265.487 337.493C265.629 337.478 265.769 337.451 265.906 337.412C266.091 335.337 267.062 333.702 268.184 333.702Z" fill="url(#paint3_linear_20_437)"/>
<path d="M267.01 329.51C266.965 330.743 266.395 331.746 265.742 331.749C265.089 331.753 264.607 330.753 264.659 329.531C264.711 328.308 265.274 327.333 265.917 327.323C266.559 327.312 267.052 328.28 267.01 329.51Z" fill="#241F20"/>
<path d="M363.928 316.314C363.928 316.314 359.683 314.934 357.549 316.174C357.55 316.181 357.55 316.188 357.549 316.195C354.918 317.477 352.818 321.236 352.469 325.862C352.05 331.452 353.866 336.284 357.112 337.115L357.517 337.185C357.591 337.185 357.657 337.217 357.73 337.22H357.758C358.894 337.391 361.294 337.681 362.999 337.36C362.978 337.367 371.244 326.365 363.928 316.314Z" fill="#231F20"/>
<path d="M367.911 326.861C367.684 332.546 365.706 337.133 362.978 337.367C360.249 337.601 356.934 334.376 357.066 327.585C357.164 320.248 360.623 316.325 363.027 316.195C365.975 316.035 368.152 320.919 367.911 326.861Z" fill="#323232"/>
<path d="M366.36 326.844C366.209 331.386 364.323 335.117 362.146 335.117C359.97 335.117 358.373 331.442 358.548 326.921C358.722 322.4 360.585 318.791 362.74 318.749C364.896 318.707 366.51 322.32 366.36 326.844Z" fill="url(#paint4_linear_20_437)"/>
<path d="M366.028 326.847C365.888 331.015 364.159 334.415 362.185 334.418C360.211 334.422 358.733 331.054 358.894 326.917C359.054 322.781 360.759 319.469 362.716 319.434C364.672 319.399 366.164 322.707 366.028 326.847Z" fill="#BBBDBF"/>
<path d="M365.235 326.854C365.126 330.104 363.778 332.745 362.23 332.748C360.682 332.752 359.533 330.139 359.655 326.91C359.777 323.682 361.112 321.09 362.642 321.062C364.172 321.034 365.343 323.619 365.235 326.854Z" fill="#241F20"/>
<path d="M364.008 330.023C364.123 330.029 364.235 330.059 364.338 330.11C364.441 330.161 364.532 330.232 364.606 330.32C365.013 329.209 365.236 328.038 365.266 326.855C365.266 326.659 365.266 326.47 365.266 326.278C364.567 326.075 364.096 324.86 364.148 323.368C364.16 322.97 364.213 322.574 364.305 322.187C363.858 321.446 363.292 320.992 362.656 321.003C362.57 321.015 362.484 321.035 362.401 321.062C362.303 322.613 361.65 323.857 360.899 323.857C360.777 323.851 360.658 323.818 360.549 323.762C360.441 323.706 360.346 323.628 360.27 323.532C359.885 324.614 359.671 325.749 359.638 326.896C359.638 327.092 359.638 327.284 359.638 327.473C360.378 327.546 360.927 328.828 360.867 330.422C360.854 330.87 360.786 331.314 360.665 331.746C361.095 332.409 361.633 332.794 362.23 332.794C362.325 332.784 362.419 332.764 362.509 332.734C362.621 331.229 363.268 330.03 364.008 330.023Z" fill="url(#paint5_linear_20_437)"/>
<path d="M363.229 326.914C363.201 327.826 362.824 328.57 362.391 328.57C361.958 328.57 361.636 327.833 361.671 326.931C361.706 326.03 362.08 325.307 362.506 325.296C362.932 325.286 363.261 326.016 363.229 326.914Z" fill="#241F20"/>
<path d="M292.154 289.49C292.154 289.49 267.349 303.178 264.903 303.988C262.458 304.799 252.843 308.879 250.132 311.989C247.421 315.098 245.524 317.544 245.241 322.152C244.958 326.76 244.836 331.773 245.377 332.982C245.919 334.191 251.341 336.64 260.826 337.321C270.312 338.003 297.964 338.132 301.489 337.049C305.014 335.966 305.283 334.201 307.18 329.461C309.077 324.72 312.33 315.364 319.108 316.185C325.885 317.006 325.882 331.228 324.257 336.797L357.447 330.425C357.447 330.425 359.344 313.62 363.68 313.484C368.016 313.348 368.26 318.145 367.984 324.493C367.984 324.493 368.382 324.217 368.683 323.238C368.983 322.26 371.576 315.203 371.202 313.805C370.828 312.408 371.09 307.541 370.653 306.077C369.79 303.178 366.112 303.883 359.603 294.478C355.788 288.958 344.8 286.261 337.617 285.556C330.434 284.85 320.198 285.437 311.488 286.027C302.778 286.618 299.281 286.96 292.154 289.49Z" fill="#FFD200"/>
<g style="mix-blend-mode:multiply" opacity="0.4">
<path d="M342.313 333.328C342.313 333.328 345.003 309.711 344.846 307.513C344.688 305.316 342.505 301.951 342.505 301.951L343.095 301.522C343.095 301.522 345.597 304.027 345.778 306.172C345.96 308.317 342.313 333.328 342.313 333.328Z" fill="#FFD200"/>
</g>
<g style="mix-blend-mode:multiply" opacity="0.4">
<path d="M249.982 324.692C250.91 324.905 251.85 325.057 252.798 325.146C251.869 324.939 250.929 324.788 249.982 324.692Z" fill="#FFD200"/>
<path d="M339.773 285.804C339.074 285.702 338.375 285.608 337.638 285.545C336.684 285.451 335.678 285.381 334.627 285.332C335.594 285.437 337.858 285.664 340.604 285.933L340.377 285.888L339.773 285.804Z" fill="#FFD200"/>
<path d="M245.262 322.152C244.99 326.76 244.857 331.774 245.398 332.982C245.94 334.191 251.362 336.64 260.847 337.321C270.333 338.003 297.985 338.132 301.51 337.049C305.035 335.966 305.304 334.202 307.201 329.461C309.098 324.72 312.351 315.364 319.129 316.185C325.906 317.006 325.903 331.228 324.278 336.797L357.468 330.425C357.468 330.425 359.365 313.62 363.701 313.484C368.037 313.348 368.281 318.145 368.005 324.493C368.005 324.493 368.403 324.217 368.704 323.238C369.004 322.26 371.597 315.203 371.223 313.806C370.849 312.408 371.111 307.541 370.674 306.078C369.811 303.178 366.133 303.884 359.624 294.479C356.322 289.706 347.668 287.048 340.758 285.958H340.618C352.881 288.054 358.785 295.74 358.136 298.07C357.437 300.596 353.657 301.249 353.657 301.249C356.121 301.146 358.589 301.237 361.039 301.522C364.532 301.99 366.842 304.268 369.12 307.014C371.397 309.76 370.297 314.232 370.217 315.647C370.136 317.062 368.648 317.998 368.257 316.038C367.865 314.078 366.059 312.506 362.841 312.506C359.624 312.506 358.055 320.276 356.172 325.062C354.289 329.848 330.668 334.006 328.079 333.447C325.491 332.888 328.237 331.326 326.825 322.851C325.414 314.375 318.192 313.121 315.055 314.466C311.918 315.811 309.091 315.409 305.482 314.623C302.951 314.135 300.374 313.924 297.796 313.994C297.796 313.994 304.022 316.115 300.619 318.861C297.216 321.607 282.85 321.824 282.85 321.824C282.85 321.824 295.99 322.417 299.575 323.686C303.159 324.954 300.155 331.18 297.258 333.024C294.362 334.869 289.184 334.771 287.305 334.698C285.425 334.624 284.72 332.724 284.72 332.724C284.72 332.724 281.439 333.856 274.452 335.519C267.464 337.182 252.407 335.375 249.545 334.216C246.684 333.056 245.783 326.942 246.432 325.384C246.782 324.584 248.438 324.545 249.982 324.685C247.557 324.119 245.514 323.127 245.674 321.789C245.891 319.944 247.641 320.126 248.469 320.307C249.297 320.489 249.926 318.784 249.926 318.784C249.926 318.784 250.066 314.403 249.926 313.498C249.832 312.981 249.913 312.447 250.157 311.982C247.428 315.105 245.531 317.544 245.262 322.152Z" fill="#FFD200"/>
</g>
<path d="M341.61 306.713C341.684 307.16 340.65 307.702 339.301 307.922C337.953 308.142 336.803 307.95 336.73 307.503C336.656 307.056 337.691 306.511 339.039 306.294C340.388 306.077 341.537 306.263 341.61 306.713Z" fill="#F6A01A"/>
<path opacity="0.4" d="M268.195 303.457C268.195 303.457 315.174 303.635 310.395 305.41C310.395 305.41 294.746 309.603 287.263 312.876C287.263 312.876 296.347 307.985 305.752 305.613C309.196 304.753 279.339 304.271 268.195 303.457Z" fill="white"/>
<path opacity="0.4" d="M257.99 307.314C257.99 307.314 252.302 310.574 253.479 311.856C254.657 313.138 258.238 314.211 264.453 314.421C264.453 314.421 258.604 314.885 253.186 312.695C251.704 312.094 250.719 314.242 250.555 314.742C250.555 314.752 248.382 311.619 257.99 307.314Z" fill="white"/>
<path d="M329.732 285.612C329.732 285.612 327.541 282.632 326.878 281.769C326.214 280.906 325.829 281.07 324.739 281.042C323.649 281.014 318.224 281 318.224 281C317.144 281 316.805 281.657 316.358 282.101C316.274 282.184 314.206 285.73 314.206 285.73C314.206 285.73 313.857 286.206 316.03 286.251C318.203 286.296 324.928 286.513 327.105 286.338C329.281 286.164 330.158 286.188 329.732 285.612Z" fill="#FFBA00"/>
<g style="mix-blend-mode:multiply" opacity="0.3">
<path d="M329.732 285.612C329.732 285.612 327.541 282.632 326.878 281.769C326.214 280.906 325.829 281.07 324.739 281.042C324.341 281.042 323.359 281.017 322.294 281.01C325.001 281.01 326.182 282.006 327.161 283.676C328.139 285.346 327.594 285.608 324.453 285.751C321.312 285.895 316.418 285.923 315.555 285.549C314.692 285.175 315.879 282.908 315.904 282.88C315.268 283.945 314.227 285.73 314.227 285.73C314.227 285.73 313.878 286.206 316.051 286.251C318.224 286.296 324.949 286.513 327.126 286.338C329.302 286.164 330.158 286.188 329.732 285.612Z" fill="#FFBA00"/>
</g>
<path style="mix-blend-mode:multiply" opacity="0.5" d="M327.286 290.132L314.482 303.059C313.403 304.153 312.438 304.069 312.438 304.069C308.001 303.754 289.059 302.584 269.739 303.185C268.467 303.223 269.924 302.332 269.924 302.332C274.749 299.632 287.256 292.697 291.934 290.003C292.533 289.648 293.199 289.42 293.89 289.336C293.89 289.336 311.666 288.312 319.496 288.473C323.58 288.557 325.784 288.731 326.979 288.878C326.965 288.892 328.502 289.035 327.286 290.132Z" fill="url(#paint6_linear_20_437)"/>
<path d="M326.707 290.276L314.129 302.783C313.081 303.831 312.124 303.758 312.124 303.758C307.764 303.454 289.164 302.322 270.2 302.902C268.949 302.94 270.378 302.081 270.378 302.081C275.119 299.471 287.403 292.767 291.986 290.164C292.576 289.819 293.23 289.599 293.908 289.518C293.908 289.518 311.376 288.525 319.062 288.683C323.073 288.767 325.25 288.931 326.399 289.074C326.392 289.074 327.901 289.214 326.707 290.276Z" fill="#003152"/>
<mask id="mask0_20_437" style="mask-type:luminance" maskUnits="userSpaceOnUse" x="269" y="288" width="59" height="16">
<path d="M326.707 290.276L314.129 302.783C313.081 303.831 312.124 303.758 312.124 303.758C307.764 303.454 289.164 302.322 270.2 302.902C268.949 302.94 270.378 302.081 270.378 302.081C275.119 299.471 287.403 292.767 291.986 290.164C292.576 289.819 293.23 289.599 293.908 289.518C293.908 289.518 311.376 288.525 319.062 288.683C323.073 288.767 325.25 288.931 326.399 289.074C326.392 289.074 327.901 289.214 326.707 290.276Z" fill="white"/>
</mask>
<g mask="url(#mask0_20_437)">
<g opacity="0.1">
<path d="M299.348 303.695H292.793L314.084 286.24H319.433L299.348 303.695Z" fill="white"/>
<path d="M290.302 303.695H267.174L293.153 286.24H312.047L290.302 303.695Z" fill="white"/>
</g>
</g>
<path style="mix-blend-mode:multiply" opacity="0.5" d="M318.423 303.751C318.423 303.751 327.552 290.611 331.28 289.001C333.893 287.869 342.232 287.097 347.745 288.917C353.258 290.737 358.139 293.962 358.925 295.118C359.711 296.274 362.6 300.009 361.165 300.491C359.729 300.973 322.231 304.956 320.393 305.382C318.556 305.809 317.93 304.516 318.423 303.751Z" fill="url(#paint7_linear_20_437)"/>
<path d="M319.041 303.828C319.041 303.828 328.851 290.412 331.44 289.392C334.029 288.372 342.19 287.585 347.606 289.311C353.021 291.037 357.807 294.098 358.59 295.195C359.372 296.292 362.199 299.827 360.787 300.295C359.376 300.764 322.573 304.533 320.767 304.928C318.961 305.323 318.566 304.554 319.041 303.828Z" fill="#003152"/>
<mask id="mask1_20_437" style="mask-type:luminance" maskUnits="userSpaceOnUse" x="318" y="288" width="44" height="18">
<path d="M319.041 303.828C319.041 303.828 328.851 290.412 331.44 289.392C334.029 288.372 342.19 287.585 347.606 289.311C353.021 291.037 357.807 294.098 358.59 295.195C359.372 296.292 362.199 299.827 360.787 300.295C359.376 300.764 322.573 304.533 320.767 304.928C318.961 305.323 318.566 304.554 319.041 303.828Z" fill="white"/>
</mask>
<g mask="url(#mask1_20_437)">
<g opacity="0.1">
<path d="M330.263 306.361H316.453L331.36 286.901H345.167L330.263 306.361Z" fill="white"/>
<path d="M336.09 306.361H331.678L346.582 286.901H350.994L336.09 306.361Z" fill="white"/>
</g>
</g>
<g style="mix-blend-mode:multiply" opacity="0.4">
<path d="M329.002 303.608C328.831 304.355 327.748 305.103 326.783 305.316C325.994 305.491 325.386 305.274 325.351 304.823C325.278 304.32 325.854 303.576 326.829 303.122C328.062 302.535 329.173 302.738 329.002 303.608Z" fill="#F6A01A"/>
</g>
<path d="M325.788 304.303C325.788 304.303 326.954 301.466 327.615 300.006C328.275 298.545 329.641 297.235 332.939 297.301C336.237 297.368 336.754 297.881 336.593 298.909C336.433 299.936 336.468 302.58 333.928 302.853C331.388 303.125 329.617 302.608 328.761 303.681C327.905 304.753 325.18 305.753 325.788 304.303Z" fill="#FFD200"/>
<g style="mix-blend-mode:multiply" opacity="0.4">
<path d="M335.049 297.455C336.691 297.972 336.447 300.163 335.598 301.12C334.749 302.077 333.208 302.259 331.405 301.934C329.603 301.609 328.96 302.179 328.188 302.081C327.416 301.983 327.59 301.347 328.048 300.166C328.333 299.429 328.735 298.742 329.239 298.133C328.532 298.585 327.975 299.237 327.639 300.006C326.979 301.466 325.812 304.303 325.812 304.303C325.204 305.763 327.908 304.747 328.771 303.681C329.634 302.615 331.412 303.129 333.952 302.853C336.492 302.577 336.461 299.932 336.618 298.909C336.709 298.158 336.464 297.682 335.049 297.455Z" fill="#FFD200"/>
</g>
<path d="M247.868 324.618C247.868 324.618 260.505 326.11 268.429 326.11C276.352 326.11 280.045 325.562 278.56 328.465C277.075 331.368 272.205 336.312 265.379 335.84C258.552 335.369 250.862 334.977 249.371 333.171C247.879 331.365 245.122 324.322 247.868 324.618Z" fill="#231F20"/>
<g style="mix-blend-mode:multiply" opacity="0.3">
<path d="M268.429 326.114C266.72 326.114 264.795 326.044 262.821 325.936C274.35 326.879 273.302 329.59 271.255 331.787C269.208 333.985 261.211 333.828 254.461 332.884C248.277 332.022 247.044 328.151 246.883 327.508C247.334 329.583 248.539 332.179 249.36 333.174C250.852 334.981 258.541 335.372 265.368 335.844C272.195 336.315 277.054 331.372 278.55 328.461C280.045 325.551 276.356 326.114 268.429 326.114Z" fill="#231F20"/>
</g>
<g style="mix-blend-mode:multiply" opacity="0.3">
<path d="M289.611 332.504C289.611 333.016 289.459 333.518 289.174 333.944C288.889 334.37 288.484 334.702 288.01 334.899C287.537 335.095 287.015 335.146 286.513 335.046C286.01 334.946 285.548 334.699 285.185 334.337C284.823 333.974 284.576 333.512 284.476 333.009C284.376 332.507 284.427 331.985 284.623 331.512C284.82 331.038 285.152 330.633 285.578 330.348C286.004 330.063 286.506 329.911 287.018 329.911C287.706 329.911 288.365 330.184 288.851 330.671C289.338 331.157 289.611 331.816 289.611 332.504Z" fill="#FFD200"/>
</g>
<path d="M289.324 332.399C289.325 332.857 289.19 333.305 288.936 333.687C288.681 334.068 288.32 334.365 287.897 334.541C287.474 334.717 287.008 334.763 286.558 334.674C286.109 334.585 285.696 334.365 285.371 334.041C285.047 333.718 284.826 333.305 284.736 332.855C284.647 332.406 284.692 331.94 284.868 331.517C285.043 331.093 285.34 330.731 285.721 330.477C286.102 330.222 286.55 330.086 287.008 330.086C287.622 330.086 288.21 330.329 288.645 330.763C289.079 331.197 289.323 331.785 289.324 332.399Z" fill="#FFF797"/>
<g style="mix-blend-mode:multiply">
<path d="M288.178 330.415C288.324 330.719 288.4 331.052 288.402 331.389C288.405 331.799 288.299 332.202 288.094 332.557C287.89 332.912 287.594 333.206 287.238 333.408C286.882 333.611 286.479 333.715 286.069 333.709C285.659 333.704 285.259 333.589 284.908 333.377C285.06 333.706 285.288 333.994 285.572 334.219C285.857 334.444 286.19 334.598 286.545 334.67C286.9 334.742 287.267 334.73 287.617 334.634C287.966 334.537 288.288 334.36 288.556 334.117C288.824 333.873 289.032 333.57 289.161 333.231C289.29 332.893 289.338 332.529 289.301 332.168C289.263 331.808 289.142 331.461 288.945 331.157C288.749 330.852 288.484 330.598 288.171 330.415H288.178Z" fill="#FFF797"/>
</g>
<g style="mix-blend-mode:multiply" opacity="0.5">
<path d="M256.187 315.287L274.064 315.479C274.064 315.479 276.111 315.685 274.357 316.139C270.85 317.09 267.222 317.518 263.59 317.408C258.402 317.278 254.395 317.289 254.314 316.496C254.248 315.839 255.107 315.277 256.187 315.287Z" fill="#FDBB30"/>
</g>
<path d="M256.396 315.416L274.092 315.594C274.092 315.594 275.804 315.692 273.805 316.15C270.438 316.93 266.984 317.268 263.53 317.156C258.587 317.037 254.796 317.097 254.684 316.485C254.573 315.874 255.366 315.409 256.396 315.416Z" fill="#323232"/>
<g style="mix-blend-mode:multiply" opacity="0.4">
<path d="M274.092 315.594L265.997 315.514C272.673 315.71 271.332 316.157 268.663 316.607C265.993 317.058 258.975 316.901 256.571 316.719C254.29 316.548 255.443 315.622 255.565 315.531C254.988 315.703 254.618 316.055 254.684 316.485C254.782 317.097 258.587 317.037 263.53 317.156C266.985 317.268 270.439 316.93 273.805 316.15C275.804 315.692 274.092 315.594 274.092 315.594Z" fill="#323232"/>
</g>
<g style="mix-blend-mode:multiply" opacity="0.5">
<path d="M256.187 318.134L274.064 318.326C274.064 318.326 276.111 318.532 274.357 318.987C270.85 319.937 267.222 320.365 263.59 320.255C258.402 320.129 254.395 320.136 254.314 319.346C254.248 318.679 255.107 318.124 256.187 318.134Z" fill="#FDBB30"/>
</g>
<path d="M256.396 318.264L274.092 318.445C274.092 318.445 275.804 318.543 273.805 318.997C270.438 319.777 266.984 320.116 263.53 320.003C258.587 319.885 254.796 319.944 254.684 319.333C254.573 318.721 255.366 318.257 256.396 318.264Z" fill="#323232"/>
<g style="mix-blend-mode:multiply" opacity="0.4">
<path d="M274.092 318.445L265.997 318.361C272.673 318.557 271.332 319.004 268.663 319.455C265.993 319.906 258.975 319.748 256.571 319.567C254.29 319.392 255.443 318.47 255.565 318.379C254.988 318.55 254.618 318.903 254.684 319.333C254.782 319.944 258.587 319.885 263.53 320.003C266.985 320.116 270.439 319.777 273.805 318.997C275.804 318.543 274.092 318.445 274.092 318.445Z" fill="#323232"/>
</g>
<path style="mix-blend-mode:multiply" opacity="0.5" d="M249.105 313.208C249.504 314.035 249.801 314.908 249.989 315.807C250.167 316.953 250.297 320.58 249.898 320.8C249.5 321.02 247.414 320.653 246.674 320.049C246.339 319.784 246.023 319.496 245.727 319.189C245.727 319.189 246.66 314.759 249.105 313.208Z" fill="url(#paint8_linear_20_437)"/>
<path d="M249.105 313.208C249.412 313.886 249.629 314.601 249.751 315.336C249.93 316.485 250.062 320.108 249.664 320.328C249.266 320.548 247.18 320.185 246.439 319.577C245.769 319.032 245.804 318.92 245.804 318.92C245.804 318.92 246.659 314.759 249.105 313.208Z" fill="white"/>
<path opacity="0.7" d="M249.745 315.336C249.622 314.601 249.405 313.886 249.098 313.208C248.933 313.315 248.774 313.432 248.623 313.557C249.49 313.603 250.055 316.803 249.573 318.55C249.091 320.297 246.883 319.598 246.401 318.756C245.919 317.914 247.215 315.336 247.351 315.067C246.634 316.258 246.109 317.555 245.797 318.91C245.797 318.91 245.762 319.021 246.433 319.566C247.173 320.174 249.259 320.538 249.657 320.318C250.055 320.098 249.923 316.485 249.745 315.336Z" fill="#CFE0F3"/>
<path style="mix-blend-mode:multiply" opacity="0.5" d="M276.611 321.174C276.611 321.174 283.214 313.463 289.188 313.582C295.162 313.701 305.629 314.151 305.018 315.584C304.406 317.016 301.283 321.701 295.658 321.939C290.033 322.176 275.004 322.833 276.611 321.174Z" fill="url(#paint9_linear_20_437)"/>
<path d="M277.491 320.974C277.491 320.974 283.731 313.557 289.499 313.676C295.267 313.795 304.801 314.263 304.211 315.678C303.62 317.093 300.563 320.974 295.148 321.209C289.733 321.443 275.947 322.613 277.491 320.974Z" fill="white"/>
<path opacity="0.7" d="M297.251 314.019C301.838 315.472 302.066 316.6 298.561 318.312C292.325 321.359 282.564 321.02 280.552 320.314C278.609 319.615 280.677 317.869 280.821 317.708C279.631 318.712 278.518 319.804 277.491 320.974C275.947 322.613 289.719 321.446 295.148 321.209C300.577 320.971 303.624 317.089 304.211 315.678C304.567 314.836 301.224 314.312 297.251 314.019Z" fill="#CFE0F3"/>
<path d="M386.5 322H385V333L383.5 348L386.5 335.5V322Z" fill="black"/>
<defs>
<linearGradient id="paint0_linear_20_437" x1="309.467" y1="328.794" x2="320.788" y2="337.188" gradientUnits="userSpaceOnUse">
<stop stop-color="#6E6F71"/>
<stop offset="0.71" stop-color="#909091"/>
<stop offset="1" stop-color="#9F9F9F"/>
</linearGradient>
<linearGradient id="paint1_linear_20_437" x1="310.862" y1="332.919" x2="319.336" y2="333.258" gradientUnits="userSpaceOnUse">
<stop stop-color="#D4D4D6"/>
<stop offset="1" stop-color="#E5E5E6"/>
</linearGradient>
<linearGradient id="paint2_linear_20_437" x1="259.842" y1="325.048" x2="271.166" y2="333.443" gradientUnits="userSpaceOnUse">
<stop stop-color="#6E6F71"/>
<stop offset="0.71" stop-color="#909091"/>
<stop offset="1" stop-color="#9F9F9F"/>
</linearGradient>
<linearGradient id="paint3_linear_20_437" x1="261.237" y1="329.178" x2="269.711" y2="329.517" gradientUnits="userSpaceOnUse">
<stop stop-color="#D4D4D6"/>
<stop offset="1" stop-color="#E5E5E6"/>
</linearGradient>
<linearGradient id="paint4_linear_20_437" x1="357.968" y1="323.717" x2="366.064" y2="329.723" gradientUnits="userSpaceOnUse">
<stop stop-color="#6E6F71"/>
<stop offset="0.71" stop-color="#909091"/>
<stop offset="1" stop-color="#9F9F9F"/>
</linearGradient>
<linearGradient id="paint5_linear_20_437" x1="359.185" y1="326.669" x2="364.807" y2="326.894" gradientUnits="userSpaceOnUse">
<stop stop-color="#D4D4D6"/>
<stop offset="1" stop-color="#E5E5E6"/>
</linearGradient>
<linearGradient id="paint6_linear_20_437" x1="318.839" y1="296.278" x2="271.527" y2="296.278" gradientUnits="userSpaceOnUse">
<stop stop-color="#FDBB30"/>
<stop offset="0.19" stop-color="#FDC652"/>
<stop offset="0.6" stop-color="#FEE2A7"/>
<stop offset="1" stop-color="white"/>
</linearGradient>
<linearGradient id="paint7_linear_20_437" x1="326.773" y1="296.641" x2="365.602" y2="296.641" gradientUnits="userSpaceOnUse">
<stop stop-color="#FDBB30"/>
<stop offset="0.19" stop-color="#FDC652"/>
<stop offset="0.6" stop-color="#FEE2A7"/>
<stop offset="1" stop-color="white"/>
</linearGradient>
<linearGradient id="paint8_linear_20_437" x1="245.72" y1="317.037" x2="250.153" y2="317.037" gradientUnits="userSpaceOnUse">
<stop stop-color="#FDBB30"/>
<stop offset="0.19" stop-color="#FDC652"/>
<stop offset="0.6" stop-color="#FEE2A7"/>
<stop offset="1" stop-color="white"/>
</linearGradient>
<linearGradient id="paint9_linear_20_437" x1="305.972" y1="317.925" x2="276.625" y2="317.925" gradientUnits="userSpaceOnUse">
<stop stop-color="#FDBB30"/>
<stop offset="0.19" stop-color="#FDC652"/>
<stop offset="0.6" stop-color="#FEE2A7"/>
<stop offset="1" stop-color="white"/>
</linearGradient>
</defs>
</svg>
