<svg width="2262" height="2262" viewBox="0 0 2262 2262" fill="none" xmlns="http://www.w3.org/2000/svg">
<circle cx="1131" cy="1131" r="1131" fill="#F2D232"/>
<path d="M1475.5 293H1192.5C1191.17 541.833 1188.5 1174.5 1188.5 1404.5C1188.5 1634.5 847 1628 847 1404.5V1300.5L570.5 1287.5V1404.5C570.5 1991.5 1475.5 1994 1475.5 1404.5V293Z" fill="white"/>
<path d="M1339 293.5C1339 293.5 1339 1017 1339 1416.5C1339 1816 732 1860 702.002 1416.5V1294" stroke="black" stroke-width="26" stroke-linejoin="round" stroke-dasharray="90 90"/>
<path d="M1352.5 742C1355.33 742.5 1351.9 743.2 1315.5 742C1299.75 741.481 1288.5 738 1288.5 724C1286.5 699.5 1288.5 663.5 1288.5 663.5C1288.5 663.5 1289.39 519.785 1288.5 493C1287.5 463 1294 459 1308.5 459C1310.83 458.5 1322.9 457.8 1352.5 459C1382.1 460.2 1397.5 455 1397.5 472.5C1396.5 549.333 1393 689.5 1393 724C1393 745 1372 742 1352.5 742Z" fill="#F2D232"/>
<path d="M1384 656C1356 679.2 1317 665.667 1301 656L1308.5 622C1319.7 626 1357.17 623.667 1374.5 622C1378.17 633.333 1385.2 656 1384 656Z" fill="black"/>
<path d="M1304.5 587H1296L1298 645L1304.5 617.5V587Z" fill="black"/>
<path d="M1304.5 578H1296V531.5L1304.5 546V578Z" fill="black"/>
<path d="M1309.5 543L1299.5 525.5C1341.5 509.1 1373.33 520.667 1384 528.5L1374.5 543C1358.9 537.8 1324.67 540.833 1309.5 543Z" fill="black"/>
<path d="M1377.5 546L1387.5 533V581H1377.5V546Z" fill="black"/>
<path d="M1387.5 588H1378L1379 616.5L1387 644L1387.5 588Z" fill="black"/>
<path d="M1396.5 488C1396.1 478 1383.33 464.5 1377 459C1395.8 457 1397.83 467.167 1396.5 472.5V488Z" fill="#EB1212"/>
<path d="M1312.5 459C1306.1 459 1293.83 474.667 1288.5 482.5C1288.5 465.7 1296.5 459.833 1300.5 459H1312.5Z" fill="#EB1212"/>
<path d="M1407.5 643.5C1405.1 647.9 1397.5 652.667 1394 654.5V643.5C1399.5 641.667 1409.9 639.1 1407.5 643.5Z" fill="#F2D232"/>
<path d="M1277.5 643.5C1277.9 647.9 1285 652.667 1288.5 654.5V643.5C1284.67 641.667 1277.1 639.1 1277.5 643.5Z" fill="#F2D232"/>
<path d="M1324.5 688H1322" stroke="black" stroke-width="4" stroke-linecap="square" stroke-linejoin="round" stroke-dasharray="70 70"/>
<path d="M1337.5 688H1335" stroke="black" stroke-width="4" stroke-linecap="square" stroke-linejoin="round" stroke-dasharray="70 70"/>
<path d="M1350.5 688H1348" stroke="black" stroke-width="4" stroke-linecap="square" stroke-linejoin="round" stroke-dasharray="70 70"/>
<path d="M1357 696H1355" stroke="black" stroke-width="4" stroke-linecap="square" stroke-linejoin="round" stroke-dasharray="70 70"/>
<path d="M1342.5 696H1340" stroke="black" stroke-width="4" stroke-linecap="square" stroke-linejoin="round" stroke-dasharray="70 70"/>
<path d="M1329.5 696H1327" stroke="black" stroke-width="4" stroke-linecap="square" stroke-linejoin="round" stroke-dasharray="70 70"/>
<path d="M1357 692H1327" stroke="black" stroke-width="4" stroke-linecap="square" stroke-linejoin="round"/>
<path d="M1362.5 688H1360" stroke="black" stroke-width="4" stroke-linecap="square" stroke-linejoin="round" stroke-dasharray="70 70"/>
</svg>
